<?xml version="1.0" standalone="no"?>
<!DOCTYPE svg PUBLIC "-//W3C//DTD SVG 20010904//EN"
 "http://www.w3.org/TR/2001/REC-SVG-20010904/DTD/svg10.dtd">
<svg version="1.0" xmlns="http://www.w3.org/2000/svg"
 width="256.000000pt" height="256.000000pt" viewBox="0 0 256.000000 256.000000"
 preserveAspectRatio="xMidYMid meet">
<metadata>
Created by potrace 1.11, written by Peter Selinger 2001-2013
</metadata>
<g transform="translate(0.000000,256.000000) scale(0.100000,-0.100000)"
fill="#000000" stroke="none">
<path d="M1012 2425 c-364 -67 -662 -297 -844 -650 -20 -38 -48 -119 -63 -180
-16 -66 -35 -117 -46 -128 -22 -20 -25 -45 -6 -52 18 -7 13 -227 -7 -336 -9
-47 -19 -126 -21 -176 -5 -98 2 -118 45 -128 20 -5 28 0 43 24 10 17 23 28 31
25 7 -3 25 -31 39 -62 45 -97 127 -210 218 -302 88 -88 237 -197 303 -221 20
-7 36 -17 36 -21 0 -4 6 -8 14 -8 8 0 35 -9 61 -20 25 -11 56 -22 68 -25 12
-3 59 -14 105 -24 96 -22 343 -28 432 -11 30 6 65 13 76 16 103 20 247 82 356
151 88 56 98 64 199 163 129 128 222 275 280 448 15 45 26 82 24 82 -3 0 0 12
6 26 5 15 12 42 15 62 3 19 7 42 9 51 2 9 23 45 47 81 72 109 112 193 104 223
-8 33 -40 32 -58 -3 -7 -14 -15 -27 -18 -30 -3 -3 -18 -24 -34 -48 -16 -23
-30 -41 -31 -40 -1 2 -5 35 -8 73 -7 91 -20 152 -50 246 -17 56 -21 82 -14 94
14 26 37 117 33 135 -20 100 -32 111 -117 105 l-68 -4 -36 49 c-45 61 -172
180 -245 230 -116 79 -254 139 -408 178 -92 24 -361 28 -470 7z"/>
</g>
</svg>
